<svg width="239" height="73" viewBox="0 0 239 73" fill="none" xmlns="http://www.w3.org/2000/svg">
<path id="Arrow 3" d="M235.497 1.91165C235.448 1.36153 234.962 0.955133 234.412 1.00394L225.448 1.79934C224.897 1.84815 224.491 2.33368 224.54 2.8838C224.589 3.43393 225.074 3.84032 225.624 3.79151L233.593 3.08449L234.3 11.0532C234.349 11.6033 234.834 12.0097 235.385 11.9609C235.935 11.9121 236.341 11.4266 236.292 10.8764L235.497 1.91165ZM0.654744 65.933C4.16205 66.5941 7.63643 67.1967 11.0777 67.7427L11.3911 65.7674C7.96902 65.2245 4.51365 64.6251 1.02519 63.9676L0.654744 65.933ZM32.0539 70.4254C39.2466 71.1205 46.2797 71.5651 53.1508 71.7782L53.2128 69.7791C46.3856 69.5674 39.396 69.1256 32.2463 68.4347L32.0539 70.4254ZM74.3013 71.7039C81.541 71.4232 88.5782 70.8823 95.4097 70.107L95.1842 68.1198C88.402 68.8894 81.4142 69.4266 74.2238 69.7054L74.3013 71.7039ZM116.318 66.9058C123.443 65.5239 130.308 63.885 136.909 62.0251L136.366 60.1001C129.819 61.945 123.008 63.5711 115.938 64.9424L116.318 66.9058ZM156.999 55.4096C163.824 52.8222 170.305 50.0008 176.435 46.9972L175.555 45.2012C169.481 48.1774 163.057 50.9742 156.29 53.5395L156.999 55.4096ZM194.965 36.7556C201.247 32.8551 207.04 28.7813 212.335 24.6173L211.098 23.0453C205.863 27.163 200.13 31.1944 193.91 35.0565L194.965 36.7556ZM228.137 10.5014C230.708 7.87497 233.086 5.2487 235.268 2.64188L233.734 1.35818C231.587 3.92372 229.244 6.51159 226.708 9.10235L228.137 10.5014ZM236.493 1.82327C236.395 0.723025 235.424 -0.0897649 234.324 0.00785461L216.394 1.59865C215.294 1.69627 214.481 2.66733 214.579 3.76757C214.677 4.86782 215.648 5.68061 216.748 5.58299L232.685 4.16896L234.099 20.1064C234.197 21.2066 235.168 22.0194 236.268 21.9218C237.369 21.8242 238.181 20.8531 238.084 19.7528L236.493 1.82327ZM0.469522 66.9157C3.98625 67.5786 7.47014 68.1828 10.9209 68.7304L11.5478 64.7798C8.13531 64.2383 4.68945 63.6407 1.21041 62.9849L0.469522 66.9157ZM31.9577 71.4208C39.1719 72.1179 46.2267 72.5639 53.1198 72.7777L53.2438 68.7796C46.4385 68.5685 39.4707 68.1282 32.3425 67.4393L31.9577 71.4208ZM74.3401 72.7032C81.6044 72.4215 88.6663 71.8787 95.5225 71.1006L95.0715 67.1261C88.314 67.893 81.3508 68.4283 74.1851 68.7062L74.3401 72.7032ZM116.509 67.8875C123.661 66.5003 130.553 64.8551 137.18 62.9876L136.095 59.1375C129.574 60.975 122.79 62.5946 115.747 63.9607L116.509 67.8875ZM157.353 56.3447C164.207 53.7462 170.717 50.9124 176.875 47.8952L175.116 44.3032C169.068 47.2658 162.673 50.0501 155.935 52.6045L157.353 56.3447ZM195.492 37.6051C201.805 33.6854 207.629 29.5905 212.953 25.4034L210.48 22.2592C205.274 26.3538 199.571 30.364 193.382 34.207L195.492 37.6051ZM228.852 11.2009C231.44 8.55666 233.835 5.91119 236.034 3.28372L232.967 0.716333C230.837 3.26123 228.512 5.82991 225.993 8.40283L228.852 11.2009Z" fill="#9BBDCF"/>
</svg>
