<?xml version="1.0" encoding="UTF-8" standalone="no" ?>
<!DOCTYPE svg PUBLIC "-//W3C//DTD SVG 1.1//EN" "http://www.w3.org/Graphics/SVG/1.1/DTD/svg11.dtd">
<svg xmlns="http://www.w3.org/2000/svg" xmlns:xlink="http://www.w3.org/1999/xlink" version="1.1" width="1080" height="1080" viewBox="0 0 1080 1080" xml:space="preserve">
<desc>Created with Fabric.js 5.2.4</desc>
<defs>
</defs>
<g transform="matrix(1 0 0 1 540 540)" id="6737b065-6c02-442f-a225-f298603d1800"  >
<rect style="stroke: none; stroke-width: 1; stroke-dasharray: none; stroke-linecap: butt; stroke-dashoffset: 0; stroke-linejoin: miter; stroke-miterlimit: 4; fill: rgb(255,255,255); fill-rule: nonzero; opacity: 1; visibility: hidden;" vector-effect="non-scaling-stroke"  x="-540" y="-540" rx="0" ry="0" width="1080" height="1080" />
</g>
<g transform="matrix(1 0 0 1 540 540)" id="5b9298f9-06ea-4a06-9513-9202a825907d"  >
</g>
<g transform="matrix(4.22 1.06 -1.06 4.22 540 516.01)" id="Arrow 3"  >
<path style="stroke: rgb(0,0,0); stroke-width: 0; stroke-dasharray: none; stroke-linecap: butt; stroke-dashoffset: 0; stroke-linejoin: miter; stroke-miterlimit: 4; fill: rgb(155,189,207); fill-rule: nonzero; opacity: 1;" vector-effect="non-scaling-stroke"  transform=" translate(-119.28, -36.39)" d="M 235.497 1.91165 C 235.448 1.36153 234.962 0.955133 234.412 1.00394 L 225.448 1.79934 C 224.897 1.84815 224.491 2.33368 224.54 2.8838 C 224.589 3.43393 225.074 3.84032 225.624 3.79151 L 233.593 3.08449 L 234.3 11.0532 C 234.349 11.6033 234.834 12.0097 235.385 11.9609 C 235.935 11.9121 236.341 11.4266 236.292 10.8764 L 235.497 1.91165 Z M 0.654744 65.933 C 4.16205 66.5941 7.63643 67.1967 11.0777 67.7427 L 11.3911 65.7674 C 7.96902 65.2245 4.51365 64.6251 1.02519 63.9676 L 0.654744 65.933 Z M 32.0539 70.4254 C 39.2466 71.1205 46.2797 71.5651 53.1508 71.7782 L 53.2128 69.7791 C 46.3856 69.5674 39.396 69.1256 32.2463 68.4347 L 32.0539 70.4254 Z M 74.3013 71.7039 C 81.541 71.4232 88.5782 70.8823 95.4097 70.107 L 95.1842 68.1198 C 88.402 68.8894 81.4142 69.4266 74.2238 69.7054 L 74.3013 71.7039 Z M 116.318 66.9058 C 123.443 65.5239 130.308 63.885 136.909 62.0251 L 136.366 60.1001 C 129.819 61.945 123.008 63.5711 115.938 64.9424 L 116.318 66.9058 Z M 156.999 55.4096 C 163.824 52.8222 170.305 50.0008 176.435 46.9972 L 175.555 45.2012 C 169.481 48.1774 163.057 50.9742 156.29 53.5395 L 156.999 55.4096 Z M 194.965 36.7556 C 201.247 32.8551 207.04 28.7813 212.335 24.6173 L 211.098 23.0453 C 205.863 27.163 200.13 31.1944 193.91 35.0565 L 194.965 36.7556 Z M 228.137 10.5014 C 230.708 7.87497 233.086 5.2487 235.268 2.64188 L 233.734 1.35818 C 231.587 3.92372 229.244 6.51159 226.708 9.10235 L 228.137 10.5014 Z M 236.493 1.82327 C 236.395 0.723025 235.424 -0.0897649 234.324 0.00785461 L 216.394 1.59865 C 215.294 1.69627 214.481 2.66733 214.579 3.76757 C 214.677 4.86782 215.648 5.68061 216.748 5.58299 L 232.685 4.16896 L 234.099 20.1064 C 234.197 21.2066 235.168 22.0194 236.268 21.9218 C 237.369 21.8242 238.181 20.8531 238.084 19.7528 L 236.493 1.82327 Z M 0.469522 66.9157 C 3.98625 67.5786 7.47014 68.1828 10.9209 68.7304 L 11.5478 64.7798 C 8.13531 64.2383 4.68945 63.6407 1.21041 62.9849 L 0.469522 66.9157 Z M 31.9577 71.4208 C 39.1719 72.1179 46.2267 72.5639 53.1198 72.7777 L 53.2438 68.7796 C 46.4385 68.5685 39.4707 68.1282 32.3425 67.4393 L 31.9577 71.4208 Z M 74.3401 72.7032 C 81.6044 72.4215 88.6663 71.8787 95.5225 71.1006 L 95.0715 67.1261 C 88.314 67.893 81.3508 68.4283 74.1851 68.7062 L 74.3401 72.7032 Z M 116.509 67.8875 C 123.661 66.5003 130.553 64.8551 137.18 62.9876 L 136.095 59.1375 C 129.574 60.975 122.79 62.5946 115.747 63.9607 L 116.509 67.8875 Z M 157.353 56.3447 C 164.207 53.7462 170.717 50.9124 176.875 47.8952 L 175.116 44.3032 C 169.068 47.2658 162.673 50.0501 155.935 52.6045 L 157.353 56.3447 Z M 195.492 37.6051 C 201.805 33.6854 207.629 29.5905 212.953 25.4034 L 210.48 22.2592 C 205.274 26.3538 199.571 30.364 193.382 34.207 L 195.492 37.6051 Z M 228.852 11.2009 C 231.44 8.55666 233.835 5.91119 236.034 3.28372 L 232.967 0.716333 C 230.837 3.26123 228.512 5.82991 225.993 8.40283 L 228.852 11.2009 Z" stroke-linecap="round" />
</g>
</svg>